<svg id="visual" viewBox="0 0 900 600" width="900" height="600" xmlns="http://www.w3.org/2000/svg" xmlns:xlink="http://www.w3.org/1999/xlink" version="1.1"><rect x="0" y="0" width="900" height="600" fill="#3f4141"></rect><defs><linearGradient id="grad1_0" x1="33.3%" y1="100%" x2="100%" y2="0%"><stop offset="20%" stop-color="#fbae3c" stop-opacity="1"></stop><stop offset="80%" stop-color="#fbae3c" stop-opacity="1"></stop></linearGradient></defs><defs><linearGradient id="grad1_1" x1="33.3%" y1="100%" x2="100%" y2="0%"><stop offset="20%" stop-color="#fbae3c" stop-opacity="1"></stop><stop offset="80%" stop-color="#b0a53a" stop-opacity="1"></stop></linearGradient></defs><defs><linearGradient id="grad1_2" x1="33.3%" y1="100%" x2="100%" y2="0%"><stop offset="20%" stop-color="#74934b" stop-opacity="1"></stop><stop offset="80%" stop-color="#b0a53a" stop-opacity="1"></stop></linearGradient></defs><defs><linearGradient id="grad1_3" x1="33.3%" y1="100%" x2="100%" y2="0%"><stop offset="20%" stop-color="#74934b" stop-opacity="1"></stop><stop offset="80%" stop-color="#4b7a57" stop-opacity="1"></stop></linearGradient></defs><defs><linearGradient id="grad1_4" x1="33.3%" y1="100%" x2="100%" y2="0%"><stop offset="20%" stop-color="#3d5e55" stop-opacity="1"></stop><stop offset="80%" stop-color="#4b7a57" stop-opacity="1"></stop></linearGradient></defs><defs><linearGradient id="grad1_5" x1="33.3%" y1="100%" x2="100%" y2="0%"><stop offset="20%" stop-color="#3d5e55" stop-opacity="1"></stop><stop offset="80%" stop-color="#3f4141" stop-opacity="1"></stop></linearGradient></defs><defs><linearGradient id="grad2_0" x1="0%" y1="100%" x2="66.7%" y2="0%"><stop offset="20%" stop-color="#fbae3c" stop-opacity="1"></stop><stop offset="80%" stop-color="#fbae3c" stop-opacity="1"></stop></linearGradient></defs><defs><linearGradient id="grad2_1" x1="0%" y1="100%" x2="66.7%" y2="0%"><stop offset="20%" stop-color="#b0a53a" stop-opacity="1"></stop><stop offset="80%" stop-color="#fbae3c" stop-opacity="1"></stop></linearGradient></defs><defs><linearGradient id="grad2_2" x1="0%" y1="100%" x2="66.7%" y2="0%"><stop offset="20%" stop-color="#b0a53a" stop-opacity="1"></stop><stop offset="80%" stop-color="#74934b" stop-opacity="1"></stop></linearGradient></defs><defs><linearGradient id="grad2_3" x1="0%" y1="100%" x2="66.7%" y2="0%"><stop offset="20%" stop-color="#4b7a57" stop-opacity="1"></stop><stop offset="80%" stop-color="#74934b" stop-opacity="1"></stop></linearGradient></defs><defs><linearGradient id="grad2_4" x1="0%" y1="100%" x2="66.7%" y2="0%"><stop offset="20%" stop-color="#4b7a57" stop-opacity="1"></stop><stop offset="80%" stop-color="#3d5e55" stop-opacity="1"></stop></linearGradient></defs><defs><linearGradient id="grad2_5" x1="0%" y1="100%" x2="66.7%" y2="0%"><stop offset="20%" stop-color="#3f4141" stop-opacity="1"></stop><stop offset="80%" stop-color="#3d5e55" stop-opacity="1"></stop></linearGradient></defs><g transform="translate(900, 600)"><path d="M-540.8 0C-497.8 -33.4 -454.8 -66.7 -427 -97.5C-399.3 -128.2 -386.8 -156.3 -365.8 -176.2C-344.8 -196 -315.2 -207.8 -308.8 -246.3C-302.4 -284.8 -319.2 -350.2 -304.3 -381.5C-289.4 -412.9 -242.8 -410.3 -208.7 -433.4C-174.6 -456.4 -153 -505.1 -120.3 -527.3C-87.6 -549.5 -43.8 -545.1 0 -540.8L0 0Z" fill="#3d504d"></path><path d="M-450.7 0C-414.8 -27.8 -379 -55.6 -355.8 -81.2C-332.7 -106.8 -322.3 -130.2 -304.8 -146.8C-287.3 -163.4 -262.7 -173.1 -257.4 -205.2C-252 -237.3 -266 -291.8 -253.6 -317.9C-241.1 -344.1 -202.3 -341.9 -173.9 -361.1C-145.5 -380.3 -127.5 -420.9 -100.3 -439.4C-73 -457.9 -36.5 -454.3 0 -450.7L0 0Z" fill="#416c58"></path><path d="M-360.6 0C-331.9 -22.2 -303.2 -44.5 -284.7 -65C-266.2 -85.5 -257.9 -104.2 -243.9 -117.4C-229.9 -130.7 -210.2 -138.5 -205.9 -164.2C-201.6 -189.9 -212.8 -233.4 -202.8 -254.4C-192.9 -275.3 -161.8 -273.5 -139.1 -288.9C-116.4 -304.3 -102 -336.7 -80.2 -351.5C-58.4 -366.3 -29.2 -363.4 0 -360.6L0 0Z" fill="#5d8752"></path><path d="M-270.4 0C-248.9 -16.7 -227.4 -33.4 -213.5 -48.7C-199.6 -64.1 -193.4 -78.1 -182.9 -88.1C-172.4 -98 -157.6 -103.9 -154.4 -123.1C-151.2 -142.4 -159.6 -175.1 -152.1 -190.8C-144.7 -206.5 -121.4 -205.2 -104.3 -216.7C-87.3 -228.2 -76.5 -252.5 -60.2 -263.6C-43.8 -274.7 -21.9 -272.6 0 -270.4L0 0Z" fill="#909d42"></path><path d="M-180.3 0C-165.9 -11.1 -151.6 -22.2 -142.3 -32.5C-133.1 -42.7 -128.9 -52.1 -121.9 -58.7C-114.9 -65.3 -105.1 -69.3 -102.9 -82.1C-100.8 -94.9 -106.4 -116.7 -101.4 -127.2C-96.5 -137.6 -80.9 -136.8 -69.6 -144.5C-58.2 -152.1 -51 -168.4 -40.1 -175.8C-29.2 -183.2 -14.6 -181.7 0 -180.3L0 0Z" fill="#d4ab37"></path><path d="M-90.1 0C-83 -5.6 -75.8 -11.1 -71.2 -16.2C-66.5 -21.4 -64.5 -26 -61 -29.4C-57.5 -32.7 -52.5 -34.6 -51.5 -41C-50.4 -47.5 -53.2 -58.4 -50.7 -63.6C-48.2 -68.8 -40.5 -68.4 -34.8 -72.2C-29.1 -76.1 -25.5 -84.2 -20.1 -87.9C-14.6 -91.6 -7.3 -90.9 0 -90.1L0 0Z" fill="#fbae3c"></path></g><g transform="translate(0, 0)"><path d="M540.8 0C467.6 24.9 394.3 49.9 386.1 88.1C377.8 126.3 434.5 177.8 428 206.1C421.4 234.3 351.6 239.3 312.7 249.4C273.9 259.4 266 274.6 264.4 331.5C262.7 388.4 267.3 487.2 234.7 487.3C202.1 487.3 132.3 388.7 87 381.2C41.7 373.7 20.9 457.3 0 540.8L0 0Z" fill="#3d504d"></path><path d="M450.7 0C389.7 20.8 328.6 41.6 321.7 73.4C314.8 105.3 362.1 148.2 356.6 171.7C351.2 195.3 293 199.5 260.6 207.8C228.2 216.2 221.7 228.8 220.3 276.2C218.9 323.7 222.7 406 195.5 406.1C168.4 406.1 110.3 323.9 72.5 317.7C34.8 311.4 17.4 381 0 450.7L0 0Z" fill="#416c58"></path><path d="M360.6 0C311.7 16.6 262.9 33.3 257.4 58.7C251.9 84.2 289.7 118.6 285.3 137.4C280.9 156.2 234.4 159.6 208.5 166.3C182.6 173 177.3 183 176.2 221C175.1 259 178.2 324.8 156.4 324.8C134.7 324.9 88.2 259.1 58 254.1C27.8 249.1 13.9 304.8 0 360.6L0 0Z" fill="#5d8752"></path><path d="M270.4 0C233.8 12.5 197.2 24.9 193 44.1C188.9 63.2 217.3 88.9 214 103C210.7 117.2 175.8 119.7 156.4 124.7C136.9 129.7 133 137.3 132.2 165.7C131.4 194.2 133.6 243.6 117.3 243.6C101 243.7 66.2 194.4 43.5 190.6C20.9 186.8 10.4 228.6 0 270.4L0 0Z" fill="#909d42"></path><path d="M180.3 0C155.9 8.3 131.4 16.6 128.7 29.4C125.9 42.1 144.8 59.3 142.7 68.7C140.5 78.1 117.2 79.8 104.2 83.1C91.3 86.5 88.7 91.5 88.1 110.5C87.6 129.5 89.1 162.4 78.2 162.4C67.4 162.4 44.1 129.6 29 127.1C13.9 124.6 7 152.4 0 180.3L0 0Z" fill="#d4ab37"></path><path d="M90.1 0C77.9 4.2 65.7 8.3 64.3 14.7C63 21.1 72.4 29.6 71.3 34.3C70.2 39.1 58.6 39.9 52.1 41.6C45.6 43.2 44.3 45.8 44.1 55.2C43.8 64.7 44.5 81.2 39.1 81.2C33.7 81.2 22.1 64.8 14.5 63.5C7 62.3 3.5 76.2 0 90.1L0 0Z" fill="#fbae3c"></path></g></svg>