<svg id="visual" viewBox="0 0 900 600" width="900" height="600" xmlns="http://www.w3.org/2000/svg" xmlns:xlink="http://www.w3.org/1999/xlink" version="1.1"><rect x="0" y="0" width="900" height="600" fill="#001220"></rect><defs><linearGradient id="grad1_0" x1="33.3%" y1="0%" x2="100%" y2="100%"><stop offset="20%" stop-color="#fbae3c" stop-opacity="1"></stop><stop offset="80%" stop-color="#fbae3c" stop-opacity="1"></stop></linearGradient></defs><defs><linearGradient id="grad1_1" x1="33.3%" y1="0%" x2="100%" y2="100%"><stop offset="20%" stop-color="#fbae3c" stop-opacity="1"></stop><stop offset="80%" stop-color="#eb7458" stop-opacity="1"></stop></linearGradient></defs><defs><linearGradient id="grad1_2" x1="33.3%" y1="0%" x2="100%" y2="100%"><stop offset="20%" stop-color="#b84e6c" stop-opacity="1"></stop><stop offset="80%" stop-color="#eb7458" stop-opacity="1"></stop></linearGradient></defs><defs><linearGradient id="grad1_3" x1="33.3%" y1="0%" x2="100%" y2="100%"><stop offset="20%" stop-color="#b84e6c" stop-opacity="1"></stop><stop offset="80%" stop-color="#713c69" stop-opacity="1"></stop></linearGradient></defs><defs><linearGradient id="grad1_4" x1="33.3%" y1="0%" x2="100%" y2="100%"><stop offset="20%" stop-color="#2d2b4c" stop-opacity="1"></stop><stop offset="80%" stop-color="#713c69" stop-opacity="1"></stop></linearGradient></defs><defs><linearGradient id="grad1_5" x1="33.3%" y1="0%" x2="100%" y2="100%"><stop offset="20%" stop-color="#2d2b4c" stop-opacity="1"></stop><stop offset="80%" stop-color="#001220" stop-opacity="1"></stop></linearGradient></defs><defs><linearGradient id="grad2_0" x1="0%" y1="0%" x2="66.7%" y2="100%"><stop offset="20%" stop-color="#fbae3c" stop-opacity="1"></stop><stop offset="80%" stop-color="#fbae3c" stop-opacity="1"></stop></linearGradient></defs><defs><linearGradient id="grad2_1" x1="0%" y1="0%" x2="66.7%" y2="100%"><stop offset="20%" stop-color="#eb7458" stop-opacity="1"></stop><stop offset="80%" stop-color="#fbae3c" stop-opacity="1"></stop></linearGradient></defs><defs><linearGradient id="grad2_2" x1="0%" y1="0%" x2="66.7%" y2="100%"><stop offset="20%" stop-color="#eb7458" stop-opacity="1"></stop><stop offset="80%" stop-color="#b84e6c" stop-opacity="1"></stop></linearGradient></defs><defs><linearGradient id="grad2_3" x1="0%" y1="0%" x2="66.7%" y2="100%"><stop offset="20%" stop-color="#713c69" stop-opacity="1"></stop><stop offset="80%" stop-color="#b84e6c" stop-opacity="1"></stop></linearGradient></defs><defs><linearGradient id="grad2_4" x1="0%" y1="0%" x2="66.7%" y2="100%"><stop offset="20%" stop-color="#713c69" stop-opacity="1"></stop><stop offset="80%" stop-color="#2d2b4c" stop-opacity="1"></stop></linearGradient></defs><defs><linearGradient id="grad2_5" x1="0%" y1="0%" x2="66.7%" y2="100%"><stop offset="20%" stop-color="#001220" stop-opacity="1"></stop><stop offset="80%" stop-color="#2d2b4c" stop-opacity="1"></stop></linearGradient></defs><g transform="translate(900, 0)"><path d="M0 297.5C-13.7 259.6 -27.5 221.7 -51 223.3C-74.4 224.8 -107.7 265.7 -129.1 268C-150.5 270.3 -160 234 -163.4 204.8C-166.7 175.7 -163.8 153.8 -175.1 139.7C-186.5 125.5 -212.1 119.1 -218 105C-224 90.9 -210.4 69.1 -220.3 50.3C-230.3 31.5 -263.9 15.8 -297.5 0L0 0Z" fill="#131f37"></path><path d="M0 247.9C-11.4 216.3 -22.9 184.8 -42.5 186C-62 187.3 -89.7 221.4 -107.6 223.3C-125.4 225.2 -133.4 195 -136.1 170.7C-138.9 146.4 -136.5 128.2 -145.9 116.4C-155.4 104.6 -176.7 99.3 -181.7 87.5C-186.7 75.7 -175.3 57.6 -183.6 41.9C-191.9 26.3 -219.9 13.1 -247.9 0L0 0Z" fill="#4d345e"></path><path d="M0 198.3C-9.2 173.1 -18.3 147.8 -34 148.8C-49.6 149.9 -71.8 177.1 -86 178.7C-100.3 180.2 -106.7 156 -108.9 136.6C-111.1 117.1 -109.2 102.5 -116.8 93.1C-124.3 83.7 -141.4 79.4 -145.4 70C-149.3 60.6 -140.2 46 -146.9 33.5C-153.5 21 -175.9 10.5 -198.3 0L0 0Z" fill="#96446e"></path><path d="M0 148.7C-6.9 129.8 -13.7 110.9 -25.5 111.6C-37.2 112.4 -53.8 132.9 -64.5 134C-75.2 135.1 -80 117 -81.7 102.4C-83.3 87.9 -81.9 76.9 -87.6 69.8C-93.2 62.8 -106 59.6 -109 52.5C-112 45.4 -105.2 34.5 -110.2 25.1C-115.2 15.8 -131.9 7.9 -148.7 0L0 0Z" fill="#d55e64"></path><path d="M0 99.2C-4.6 86.5 -9.2 73.9 -17 74.4C-24.8 74.9 -35.9 88.6 -43 89.3C-50.2 90.1 -53.3 78 -54.5 68.3C-55.6 58.6 -54.6 51.3 -58.4 46.6C-62.2 41.8 -70.7 39.7 -72.7 35C-74.7 30.3 -70.1 23 -73.4 16.8C-76.8 10.5 -88 5.3 -99.2 0L0 0Z" fill="#f88f4a"></path><path d="M0 49.6C-2.3 43.3 -4.6 37 -8.5 37.2C-12.4 37.5 -17.9 44.3 -21.5 44.7C-25.1 45 -26.7 39 -27.2 34.1C-27.8 29.3 -27.3 25.6 -29.2 23.3C-31.1 20.9 -35.3 19.9 -36.3 17.5C-37.3 15.1 -35.1 11.5 -36.7 8.4C-38.4 5.3 -44 2.6 -49.6 0L0 0Z" fill="#fbae3c"></path></g><g transform="translate(0, 600)"><path d="M0 -297.5C21.8 -288.4 43.5 -279.4 59.6 -261.3C75.7 -243.2 86.1 -216.1 95.5 -198.2C104.8 -180.3 113 -171.6 139.7 -175.1C166.3 -178.7 211.4 -194.5 232.6 -185.5C253.7 -176.5 251 -142.6 239.7 -115.4C228.3 -88.2 208.2 -67.5 216.4 -49.4C224.6 -31.3 261 -15.6 297.5 0L0 0Z" fill="#131f37"></path><path d="M0 -247.9C18.1 -240.3 36.3 -232.8 49.7 -217.7C63.1 -202.7 71.8 -180.1 79.5 -165.2C87.3 -150.3 94.2 -143 116.4 -145.9C138.6 -148.9 176.2 -162.1 193.8 -154.6C211.5 -147 209.2 -118.9 199.7 -96.2C190.2 -73.5 173.5 -56.3 180.4 -41.2C187.2 -26.1 217.5 -13 247.9 0L0 0Z" fill="#4d345e"></path><path d="M0 -198.3C14.5 -192.3 29 -186.2 39.8 -174.2C50.5 -162.1 57.4 -144.1 63.6 -132.1C69.9 -120.2 75.3 -114.4 93.1 -116.8C110.9 -119.1 140.9 -129.6 155 -123.6C169.2 -117.6 167.4 -95.1 159.8 -76.9C152.2 -58.8 138.8 -45 144.3 -32.9C149.7 -20.8 174 -10.4 198.3 0L0 0Z" fill="#96446e"></path><path d="M0 -148.7C10.9 -144.2 21.8 -139.7 29.8 -130.6C37.9 -121.6 43.1 -108.1 47.7 -99.1C52.4 -90.2 56.5 -85.8 69.8 -87.6C83.2 -89.3 105.7 -97.2 116.3 -92.7C126.9 -88.2 125.5 -71.3 119.8 -57.7C114.1 -44.1 104.1 -33.8 108.2 -24.7C112.3 -15.6 130.5 -7.8 148.7 0L0 0Z" fill="#d55e64"></path><path d="M0 -99.2C7.3 -96.1 14.5 -93.1 19.9 -87.1C25.2 -81.1 28.7 -72 31.8 -66.1C34.9 -60.1 37.7 -57.2 46.6 -58.4C55.4 -59.6 70.5 -64.8 77.5 -61.8C84.6 -58.8 83.7 -47.5 79.9 -38.5C76.1 -29.4 69.4 -22.5 72.1 -16.5C74.9 -10.4 87 -5.2 99.2 0L0 0Z" fill="#f88f4a"></path><path d="M0 -49.6C3.6 -48.1 7.3 -46.6 9.9 -43.5C12.6 -40.5 14.4 -36 15.9 -33C17.5 -30.1 18.8 -28.6 23.3 -29.2C27.7 -29.8 35.2 -32.4 38.8 -30.9C42.3 -29.4 41.8 -23.8 39.9 -19.2C38 -14.7 34.7 -11.3 36.1 -8.2C37.4 -5.2 43.5 -2.6 49.6 0L0 0Z" fill="#fbae3c"></path></g></svg>