<svg id="visual" viewBox="0 0 900 600" width="900" height="600" xmlns="http://www.w3.org/2000/svg" xmlns:xlink="http://www.w3.org/1999/xlink" version="1.1"><rect x="0" y="0" width="900" height="600" fill="#FF0066"></rect><g transform="translate(436.5023964111894 294.74613712746526)"><path d="M194.8 -231.3C241.7 -192.7 261.7 -121.2 273.8 -48.8C285.9 23.6 290.2 96.8 251.3 127.1C212.3 157.4 130.2 144.8 59.8 175.2C-10.7 205.6 -69.5 279 -127.4 285.8C-185.4 292.6 -242.5 232.8 -253.3 168.4C-264.1 104 -228.6 35 -215.9 -38.3C-203.2 -111.6 -213.5 -189.1 -181.3 -230.2C-149.1 -271.4 -74.6 -276.2 -0.3 -275.8C73.9 -275.4 147.8 -269.9 194.8 -231.3" fill="#BB004B"></path></g></svg>