<svg id="visual" viewBox="0 0 900 600" width="900" height="600" xmlns="http://www.w3.org/2000/svg" xmlns:xlink="http://www.w3.org/1999/xlink" version="1.1"><g stroke-width="1" stroke-linejoin="bevel"><path d="M432 267L387 236L379 259Z" fill="#942871" stroke="#942871"></path><path d="M387 236L317 232L379 259Z" fill="#061a2e" stroke="#061a2e"></path><path d="M432 267L483 160L387 236Z" fill="#252751" stroke="#252751"></path><path d="M387 236L328 143L317 232Z" fill="#e12357" stroke="#e12357"></path><path d="M328 143L281 214L317 232Z" fill="#e12357" stroke="#e12357"></path><path d="M409 99L328 143L387 236Z" fill="#762c70" stroke="#762c70"></path><path d="M432 267L550 248L483 160Z" fill="#942871" stroke="#942871"></path><path d="M483 160L409 99L387 236Z" fill="#942871" stroke="#942871"></path><path d="M317 232L271 405L379 259Z" fill="#592d6a" stroke="#592d6a"></path><path d="M379 259L443 457L432 267Z" fill="#ca1e64" stroke="#ca1e64"></path><path d="M281 214L237 269L317 232Z" fill="#942871" stroke="#942871"></path><path d="M203 124L237 269L281 214Z" fill="#00101c" stroke="#00101c"></path><path d="M237 269L271 405L317 232Z" fill="#ca1e64" stroke="#ca1e64"></path><path d="M432 267L568 379L550 248Z" fill="#b0226d" stroke="#b0226d"></path><path d="M522 444L568 379L432 267Z" fill="#252751" stroke="#252751"></path><path d="M271 405L443 457L379 259Z" fill="#e12357" stroke="#e12357"></path><path d="M543 440L573 378L568 379Z" fill="#592d6a" stroke="#592d6a"></path><path d="M568 379L573 378L550 248Z" fill="#00101c" stroke="#00101c"></path><path d="M443 457L522 444L432 267Z" fill="#112140" stroke="#112140"></path><path d="M522 444L543 440L568 379Z" fill="#942871" stroke="#942871"></path><path d="M627 121L543 69L483 160Z" fill="#ca1e64" stroke="#ca1e64"></path><path d="M483 160L543 69L409 99Z" fill="#b0226d" stroke="#b0226d"></path><path d="M627 121L483 160L550 248Z" fill="#252751" stroke="#252751"></path><path d="M208 24L203 124L328 143Z" fill="#b0226d" stroke="#b0226d"></path><path d="M328 143L203 124L281 214Z" fill="#b0226d" stroke="#b0226d"></path><path d="M326 0L328 143L409 99Z" fill="#00101c" stroke="#00101c"></path><path d="M237 269L220 429L271 405Z" fill="#00101c" stroke="#00101c"></path><path d="M271 405L292 490L443 457Z" fill="#e12357" stroke="#e12357"></path><path d="M103 337L220 429L237 269Z" fill="#e12357" stroke="#e12357"></path><path d="M428 0L387 0L409 99Z" fill="#ca1e64" stroke="#ca1e64"></path><path d="M543 69L428 0L409 99Z" fill="#112140" stroke="#112140"></path><path d="M667 171L627 121L550 248Z" fill="#112140" stroke="#112140"></path><path d="M220 429L292 490L271 405Z" fill="#762c70" stroke="#762c70"></path><path d="M443 457L463 538L522 444Z" fill="#061a2e" stroke="#061a2e"></path><path d="M522 444L597 527L543 440Z" fill="#3e2b5f" stroke="#3e2b5f"></path><path d="M387 0L326 0L409 99Z" fill="#ca1e64" stroke="#ca1e64"></path><path d="M746 282L667 171L550 248Z" fill="#112140" stroke="#112140"></path><path d="M203 124L127 271L237 269Z" fill="#112140" stroke="#112140"></path><path d="M292 490L463 538L443 457Z" fill="#061a2e" stroke="#061a2e"></path><path d="M667 171L673 139L627 121Z" fill="#e12357" stroke="#e12357"></path><path d="M627 121L558 0L543 69Z" fill="#b0226d" stroke="#b0226d"></path><path d="M543 69L558 0L428 0Z" fill="#762c70" stroke="#762c70"></path><path d="M740 0L558 0L627 121Z" fill="#061a2e" stroke="#061a2e"></path><path d="M326 0L208 24L328 143Z" fill="#762c70" stroke="#762c70"></path><path d="M203 124L67 147L127 271Z" fill="#061a2e" stroke="#061a2e"></path><path d="M0 367L103 337L127 271Z" fill="#252751" stroke="#252751"></path><path d="M127 271L103 337L237 269Z" fill="#762c70" stroke="#762c70"></path><path d="M240 600L408 600L292 490Z" fill="#3e2b5f" stroke="#3e2b5f"></path><path d="M326 0L217 0L208 24Z" fill="#112140" stroke="#112140"></path><path d="M543 440L713 436L573 378Z" fill="#112140" stroke="#112140"></path><path d="M573 378L746 282L550 248Z" fill="#e12357" stroke="#e12357"></path><path d="M463 538L597 527L522 444Z" fill="#592d6a" stroke="#592d6a"></path><path d="M713 436L746 282L573 378Z" fill="#ca1e64" stroke="#ca1e64"></path><path d="M667 171L754 143L673 139Z" fill="#00101c" stroke="#00101c"></path><path d="M292 490L408 600L463 538Z" fill="#061a2e" stroke="#061a2e"></path><path d="M463 538L533 600L597 527Z" fill="#061a2e" stroke="#061a2e"></path><path d="M133 477L292 490L220 429Z" fill="#e12357" stroke="#e12357"></path><path d="M408 600L449 600L463 538Z" fill="#942871" stroke="#942871"></path><path d="M103 337L133 477L220 429Z" fill="#00101c" stroke="#00101c"></path><path d="M597 527L713 436L543 440Z" fill="#00101c" stroke="#00101c"></path><path d="M113 0L203 124L208 24Z" fill="#061a2e" stroke="#061a2e"></path><path d="M113 0L67 147L203 124Z" fill="#112140" stroke="#112140"></path><path d="M746 282L754 143L667 171Z" fill="#3e2b5f" stroke="#3e2b5f"></path><path d="M673 139L749 89L627 121Z" fill="#ca1e64" stroke="#ca1e64"></path><path d="M449 600L533 600L463 538Z" fill="#592d6a" stroke="#592d6a"></path><path d="M597 527L657 562L713 436Z" fill="#942871" stroke="#942871"></path><path d="M754 143L749 89L673 139Z" fill="#b0226d" stroke="#b0226d"></path><path d="M232 600L240 600L292 490Z" fill="#762c70" stroke="#762c70"></path><path d="M133 477L232 600L292 490Z" fill="#762c70" stroke="#762c70"></path><path d="M217 0L113 0L208 24Z" fill="#762c70" stroke="#762c70"></path><path d="M113 0L40 108L67 147Z" fill="#b0226d" stroke="#b0226d"></path><path d="M67 147L0 367L127 271Z" fill="#061a2e" stroke="#061a2e"></path><path d="M103 337L0 409L133 477Z" fill="#e12357" stroke="#e12357"></path><path d="M648 600L657 562L597 527Z" fill="#112140" stroke="#112140"></path><path d="M749 89L740 0L627 121Z" fill="#762c70" stroke="#762c70"></path><path d="M533 600L648 600L597 527Z" fill="#061a2e" stroke="#061a2e"></path><path d="M657 562L747 550L713 436Z" fill="#112140" stroke="#112140"></path><path d="M0 120L0 367L67 147Z" fill="#ca1e64" stroke="#ca1e64"></path><path d="M133 477L91 538L232 600Z" fill="#061a2e" stroke="#061a2e"></path><path d="M0 409L91 538L133 477Z" fill="#592d6a" stroke="#592d6a"></path><path d="M0 26L0 120L40 108Z" fill="#061a2e" stroke="#061a2e"></path><path d="M40 108L0 120L67 147Z" fill="#942871" stroke="#942871"></path><path d="M900 454L838 237L746 282Z" fill="#942871" stroke="#942871"></path><path d="M746 282L838 237L754 143Z" fill="#762c70" stroke="#762c70"></path><path d="M900 90L793 0L749 89Z" fill="#592d6a" stroke="#592d6a"></path><path d="M749 89L793 0L740 0Z" fill="#00101c" stroke="#00101c"></path><path d="M900 233L838 237L900 454Z" fill="#252751" stroke="#252751"></path><path d="M0 367L0 409L103 337Z" fill="#e12357" stroke="#e12357"></path><path d="M648 600L747 550L657 562Z" fill="#061a2e" stroke="#061a2e"></path><path d="M900 90L749 89L754 143Z" fill="#3e2b5f" stroke="#3e2b5f"></path><path d="M0 579L96 600L91 538Z" fill="#762c70" stroke="#762c70"></path><path d="M91 538L96 600L232 600Z" fill="#ca1e64" stroke="#ca1e64"></path><path d="M113 0L0 26L40 108Z" fill="#061a2e" stroke="#061a2e"></path><path d="M113 0L0 0L0 26Z" fill="#b0226d" stroke="#b0226d"></path><path d="M854 475L746 282L713 436Z" fill="#592d6a" stroke="#592d6a"></path><path d="M838 237L900 149L754 143Z" fill="#592d6a" stroke="#592d6a"></path><path d="M747 550L854 475L713 436Z" fill="#e12357" stroke="#e12357"></path><path d="M900 233L900 149L838 237Z" fill="#252751" stroke="#252751"></path><path d="M0 409L0 579L91 538Z" fill="#b0226d" stroke="#b0226d"></path><path d="M900 149L900 90L754 143Z" fill="#061a2e" stroke="#061a2e"></path><path d="M648 600L807 600L747 550Z" fill="#762c70" stroke="#762c70"></path><path d="M747 550L807 600L854 475Z" fill="#252751" stroke="#252751"></path><path d="M900 574L900 454L854 475Z" fill="#3e2b5f" stroke="#3e2b5f"></path><path d="M854 475L900 454L746 282Z" fill="#ca1e64" stroke="#ca1e64"></path><path d="M0 579L0 600L96 600Z" fill="#762c70" stroke="#762c70"></path><path d="M900 90L900 0L793 0Z" fill="#ca1e64" stroke="#ca1e64"></path><path d="M807 600L900 574L854 475Z" fill="#112140" stroke="#112140"></path><path d="M807 600L900 600L900 574Z" fill="#942871" stroke="#942871"></path></g></svg>