<svg id="visual" viewBox="0 0 900 300" width="900" height="600" xmlns="http://www.w3.org/2000/svg" xmlns:xlink="http://www.w3.org/1999/xlink" version="1.1"><path d="M0 186L21.5 183.2C43 180.3 86 174.7 128.8 182.7C171.7 190.7 214.3 212.3 257.2 220.7C300 229 343 224 385.8 213.5C428.7 203 471.3 187 514.2 183.3C557 179.7 600 188.3 642.8 186.5C685.7 184.7 728.3 172.3 771.2 170C814 167.7 857 175.3 878.5 179.2L900 183L900 0L878.5 0C857 0 814 0 771.2 0C728.3 0 685.7 0 642.8 0C600 0 557 0 514.2 0C471.3 0 428.7 0 385.8 0C343 0 300 0 257.2 0C214.3 0 171.7 0 128.8 0C86 0 43 0 21.5 0L0 0Z" fill="#fa7268"></path><path d="M0 162L21.5 165.8C43 169.7 86 177.3 128.8 183C171.7 188.7 214.3 192.3 257.2 192.8C300 193.3 343 190.7 385.8 181.7C428.7 172.7 471.3 157.3 514.2 147.3C557 137.3 600 132.7 642.8 135.3C685.7 138 728.3 148 771.2 159.7C814 171.3 857 184.7 878.5 191.3L900 198L900 0L878.5 0C857 0 814 0 771.2 0C728.3 0 685.7 0 642.8 0C600 0 557 0 514.2 0C471.3 0 428.7 0 385.8 0C343 0 300 0 257.2 0C214.3 0 171.7 0 128.8 0C86 0 43 0 21.5 0L0 0Z" fill="#ef5f67"></path><path d="M0 117L21.5 122.2C43 127.3 86 137.7 128.8 141.5C171.7 145.3 214.3 142.7 257.2 144C300 145.3 343 150.7 385.8 146.7C428.7 142.7 471.3 129.3 514.2 118.8C557 108.3 600 100.7 642.8 100.3C685.7 100 728.3 107 771.2 109.8C814 112.7 857 111.3 878.5 110.7L900 110L900 0L878.5 0C857 0 814 0 771.2 0C728.3 0 685.7 0 642.8 0C600 0 557 0 514.2 0C471.3 0 428.7 0 385.8 0C343 0 300 0 257.2 0C214.3 0 171.7 0 128.8 0C86 0 43 0 21.5 0L0 0Z" fill="#e34c67"></path><path d="M0 63L21.5 64C43 65 86 67 128.8 71.7C171.7 76.3 214.3 83.7 257.2 88.7C300 93.7 343 96.3 385.8 95C428.7 93.7 471.3 88.3 514.2 88.5C557 88.7 600 94.3 642.8 96.8C685.7 99.3 728.3 98.7 771.2 96.2C814 93.7 857 89.3 878.5 87.2L900 85L900 0L878.5 0C857 0 814 0 771.2 0C728.3 0 685.7 0 642.8 0C600 0 557 0 514.2 0C471.3 0 428.7 0 385.8 0C343 0 300 0 257.2 0C214.3 0 171.7 0 128.8 0C86 0 43 0 21.5 0L0 0Z" fill="#d53867"></path><path d="M0 30L21.5 34C43 38 86 46 128.8 46.2C171.7 46.3 214.3 38.7 257.2 34.7C300 30.7 343 30.3 385.8 36.8C428.7 43.3 471.3 56.7 514.2 61C557 65.3 600 60.7 642.8 56.2C685.7 51.7 728.3 47.3 771.2 46.3C814 45.3 857 47.7 878.5 48.8L900 50L900 0L878.5 0C857 0 814 0 771.2 0C728.3 0 685.7 0 642.8 0C600 0 557 0 514.2 0C471.3 0 428.7 0 385.8 0C343 0 300 0 257.2 0C214.3 0 171.7 0 128.8 0C86 0 43 0 21.5 0L0 0Z" fill="#c62368"></path></svg>